# xmcd
#
# Track frame offsets:
#	150
#	14622
#	29873
#	43309
#	58261
#	73346
#	86967
#	101686
#	115334
#	129473
#	144144
#	159110
#	173862
#	189638
#
# Disc length: 2707 seconds
#
# Revision: 0
# Processed by: cddbd v1.5.2PL0 Copyright (c) Steve Scherf et al.
# Submitted via: EasyCDDAExtractor 16.0.8.2
#
DISCID=d20a910e
DTITLE=Άνευ ερμηνευτού - Όλοι κλαρίνο 3 Οι πρωτομάστορες
DYEAR=2014
DGENRE=Παραδοσιακή
TTITLE0=Χρυσός αετός [Κώστας Γιαούζος]
TTITLE1=Μηλίτσα [Νίκος Καρακώστας]
TTITLE2=Λιβανατέϊκος [Γιώργος Ανεστόπουλος]
TTITLE3=Γκάϊντα Καραγκούνα [Γιώργος Μιχαλόπουλος]
TTITLE4=Λαφίνα [Κώστας Καραγιάννης]
TTITLE5=Αγγινάρα [Βάϊος Μαλλιάρας]
TTITLE6=Η Φράσα [Κίτσις Χαρισιάδης]
TTITLE7=Η Άρτα [Χαράλαμπος Μαργέλης]
TTITLE8=Ιτιά [Γιάννης Κυριακάτης]
TTITLE9=Ήλιος [Θανάσης Λαβίδας]
TTITLE10=Συλιβριανό [Κώστας ''Γκας'' Γκαντίνης]
TTITLE11=Πού 'σουν Γκόλφω [Νικήτας Κωτσόπουλος]
TTITLE12=Συρτό πρεβεζιάνικο [Βασ. Μπεσίρης ή Τουρκοβασίλης]
TTITLE13=Σκάρος [Βασίλης Μπάτζης]
EXTD=
EXTT0=
EXTT1=
EXTT2=
EXTT3=
EXTT4=
EXTT5=
EXTT6=
EXTT7=
EXTT8=
EXTT9=
EXTT10=
EXTT11=
EXTT12=
EXTT13=
PLAYORDER=
